<svg xmlns="http://www.w3.org/2000/svg" width="700" height="500" viewBox="0 0 700 500" style="background-color:#ffffff; font-family:Arial, sans-serif;">
<text x="350" y="35" text-anchor="middle" font-size="18" font-weight="bold" fill="#222222">ROC Curves (5-Fold CV, 20 Repeats) - JDS Skill Traits</text>
<rect x="90" y="70" width="520" height="360" fill="#fcfcfc" stroke="#cccccc" stroke-width="1"/>
<line x1="194.0" y1="70" x2="194.0" y2="430" stroke="#e0e0e0" stroke-dasharray="4,4"/>
<line x1="90" y1="142.0" x2="610" y2="142.0" stroke="#e0e0e0" stroke-dasharray="4,4"/>
<text x="194.0" y="450" text-anchor="middle" font-size="11" fill="#555">0.2</text>
<text x="78" y="362.0" text-anchor="end" font-size="11" fill="#555">0.2</text>
<line x1="298.0" y1="70" x2="298.0" y2="430" stroke="#e0e0e0" stroke-dasharray="4,4"/>
<line x1="90" y1="214.0" x2="610" y2="214.0" stroke="#e0e0e0" stroke-dasharray="4,4"/>
<text x="298.0" y="450" text-anchor="middle" font-size="11" fill="#555">0.4</text>
<text x="78" y="290.0" text-anchor="end" font-size="11" fill="#555">0.4</text>
<line x1="402.0" y1="70" x2="402.0" y2="430" stroke="#e0e0e0" stroke-dasharray="4,4"/>
<line x1="90" y1="286.0" x2="610" y2="286.0" stroke="#e0e0e0" stroke-dasharray="4,4"/>
<text x="402.0" y="450" text-anchor="middle" font-size="11" fill="#555">0.6</text>
<text x="78" y="218.0" text-anchor="end" font-size="11" fill="#555">0.6</text>
<line x1="506.0" y1="70" x2="506.0" y2="430" stroke="#e0e0e0" stroke-dasharray="4,4"/>
<line x1="90" y1="358.0" x2="610" y2="358.0" stroke="#e0e0e0" stroke-dasharray="4,4"/>
<text x="506.0" y="450" text-anchor="middle" font-size="11" fill="#555">0.8</text>
<text x="78" y="146.0" text-anchor="end" font-size="11" fill="#555">0.8</text>
<text x="90" y="450" text-anchor="middle" font-size="11" fill="#555">0.0</text>
<text x="610" y="450" text-anchor="middle" font-size="11" fill="#555">1.0</text>
<text x="78" y="434" text-anchor="end" font-size="11" fill="#555">0.0</text>
<text x="78" y="74" text-anchor="end" font-size="11" fill="#555">1.0</text>
<text x="350.0" y="475" text-anchor="middle" font-size="13" font-weight="bold" fill="#333">False Positive Rate</text>
<text x="30" y="250.0" text-anchor="middle" font-size="13" font-weight="bold" fill="#333" transform="rotate(-90, 30, 250.0)">True Positive Rate</text>
<line x1="90" y1="430" x2="610" y2="70" stroke="#888888" stroke-dasharray="6,6" stroke-width="1.5"/>
<polyline points="90.0,430.0 90.0,425.1 90.0,420.1 90.0,415.2 90.0,410.3 90.0,405.3 90.0,400.4 90.0,395.5 90.0,390.5 90.0,385.6 97.9,385.6 97.9,380.7 105.8,380.7 105.8,375.8 113.6,375.8 113.6,370.8 113.6,365.9 113.6,361.0 113.6,356.0 113.6,351.1 113.6,346.2 113.6,341.2 113.6,336.3 113.6,331.4 113.6,326.4 113.6,321.5 113.6,316.6 113.6,311.6 113.6,306.7 113.6,301.8 113.6,296.8 113.6,291.9 121.5,291.9 121.5,287.0 121.5,282.1 129.4,282.1 129.4,277.1 129.4,272.2 129.4,267.3 129.4,262.3 129.4,257.4 129.4,252.5 129.4,247.5 129.4,242.6 129.4,237.7 129.4,232.7 129.4,227.8 129.4,222.9 129.4,217.9 129.4,213.0 137.3,213.0 137.3,208.1 137.3,203.2 137.3,198.2 137.3,193.3 137.3,188.4 137.3,183.4 137.3,178.5 137.3,173.6 137.3,168.6 137.3,163.7 137.3,158.8 137.3,153.8 137.3,148.9 137.3,144.0 145.2,144.0 153.0,144.0 153.0,139.0 153.0,134.1 153.0,129.2 153.0,124.2 160.9,124.2 160.9,119.3 160.9,114.4 168.8,114.4 176.7,114.4 176.7,109.5 184.5,109.5 192.4,109.5 192.4,104.5 192.4,99.6 192.4,94.7 200.3,94.7 208.2,94.7 216.1,94.7 223.9,94.7 231.8,94.7 239.7,94.7 239.7,89.7 247.6,89.7 255.5,89.7 263.3,89.7 271.2,89.7 271.2,84.8 279.1,84.8 287.0,84.8 294.8,84.8 302.7,84.8 310.6,84.8 318.5,84.8 326.4,84.8 334.2,84.8 342.1,84.8 350.0,84.8 357.9,84.8 365.8,84.8 373.6,84.8 381.5,84.8 389.4,84.8 397.3,84.8 405.2,84.8 413.0,84.8 413.0,79.9 420.9,79.9 428.8,79.9 436.7,79.9 436.7,74.9 436.7,70.0 444.5,70.0 452.4,70.0 460.3,70.0 468.2,70.0 476.1,70.0 483.9,70.0 491.8,70.0 499.7,70.0 507.6,70.0 515.5,70.0 523.3,70.0 531.2,70.0 539.1,70.0 547.0,70.0 554.8,70.0 562.7,70.0 570.6,70.0 578.5,70.0 586.4,70.0 594.2,70.0 602.1,70.0 610.0,70.0 610.0,70.0" fill="none" stroke="#1f77b4" stroke-width="3"/>
<line x1="400" y1="310" x2="430" y2="310" stroke="#1f77b4" stroke-width="3"/>
<text x="440" y="314" font-size="12" font-weight="bold" fill="#333">Logistic Regression (AUC = 0.903)</text>
<polyline points="90.0,430.0 97.9,430.0 105.8,430.0 113.6,430.0 113.6,425.1 113.6,420.1 113.6,415.2 113.6,410.3 113.6,405.3 113.6,400.4 113.6,395.5 113.6,390.5 113.6,385.6 121.5,385.6 121.5,380.7 121.5,375.8 121.5,370.8 121.5,365.9 121.5,361.0 121.5,356.0 129.4,356.0 129.4,351.1 129.4,346.2 129.4,341.2 129.4,336.3 129.4,331.4 129.4,326.4 129.4,321.5 129.4,316.6 137.3,316.6 137.3,311.6 137.3,306.7 137.3,301.8 137.3,296.8 145.2,296.8 145.2,291.9 145.2,287.0 145.2,282.1 145.2,277.1 145.2,272.2 145.2,267.3 145.2,262.3 145.2,257.4 145.2,252.5 145.2,247.5 153.0,247.5 153.0,242.6 153.0,237.7 153.0,232.7 160.9,232.7 168.8,232.7 176.7,232.7 176.7,227.8 176.7,222.9 176.7,217.9 184.5,217.9 184.5,213.0 184.5,208.1 184.5,203.2 184.5,198.2 184.5,193.3 184.5,188.4 184.5,183.4 184.5,178.5 184.5,173.6 184.5,168.6 184.5,163.7 184.5,158.8 192.4,158.8 192.4,153.8 192.4,148.9 192.4,144.0 192.4,139.0 192.4,134.1 200.3,134.1 200.3,129.2 208.2,129.2 208.2,124.2 216.1,124.2 223.9,124.2 223.9,119.3 223.9,114.4 231.8,114.4 231.8,109.5 239.7,109.5 239.7,104.5 247.6,104.5 255.5,104.5 263.3,104.5 271.2,104.5 271.2,99.6 279.1,99.6 287.0,99.6 294.8,99.6 302.7,99.6 310.6,99.6 318.5,99.6 318.5,94.7 326.4,94.7 326.4,89.7 334.2,89.7 342.1,89.7 342.1,84.8 350.0,84.8 350.0,79.9 357.9,79.9 365.8,79.9 365.8,74.9 373.6,74.9 381.5,74.9 389.4,74.9 397.3,74.9 405.2,74.9 413.0,74.9 420.9,74.9 428.8,70.0 444.5,70.0 452.4,70.0 460.3,70.0 468.2,70.0 476.1,70.0 610.0,70.0 610.0,70.0" fill="none" stroke="#ff7f0e" stroke-width="3"/>
<line x1="400" y1="335" x2="430" y2="335" stroke="#ff7f0e" stroke-width="3"/>
<text x="440" y="339" font-size="12" font-weight="bold" fill="#333">Decision Tree (depth 3) (AUC = 0.804)</text>
<polyline points="90.0,430.0 97.9,430.0 97.9,425.1 97.9,420.1 97.9,415.2 97.9,410.3 97.9,405.3 97.9,400.4 97.9,395.5 97.9,390.5 97.9,385.6 97.9,380.7 97.9,375.8 97.9,370.8 97.9,365.9 97.9,361.0 105.8,361.0 105.8,356.0 105.8,351.1 113.6,351.1 113.6,346.2 113.6,341.2 121.5,341.2 121.5,336.3 121.5,331.4 121.5,326.4 121.5,321.5 121.5,316.6 121.5,311.6 121.5,306.7 121.5,301.8 121.5,296.8 121.5,291.9 121.5,287.0 121.5,282.1 129.4,282.1 129.4,277.1 129.4,272.2 129.4,267.3 129.4,262.3 129.4,257.4 129.4,252.5 137.3,252.5 145.2,252.5 145.2,247.5 145.2,242.6 145.2,237.7 145.2,232.7 145.2,227.8 145.2,222.9 145.2,217.9 145.2,213.0 145.2,208.1 153.0,208.1 153.0,203.2 153.0,198.2 160.9,198.2 160.9,193.3 160.9,188.4 168.8,188.4 168.8,183.4 168.8,178.5 168.8,173.6 168.8,168.6 168.8,163.7 168.8,158.8 176.7,158.8 176.7,153.8 176.7,148.9 176.7,144.0 176.7,139.0 184.5,139.0 184.5,134.1 192.4,134.1 192.4,129.2 192.4,124.2 200.3,124.2 208.2,124.2 208.2,119.3 208.2,114.4 216.1,114.4 216.1,109.5 223.9,109.5 231.8,109.5 239.7,109.5 247.6,109.5 247.6,104.5 255.5,104.5 263.3,104.5 263.3,99.6 271.2,99.6 271.2,94.7 271.2,89.7 279.1,89.7 287.0,89.7 294.8,89.7 302.7,89.7 302.7,84.8 310.6,84.8 318.5,84.8 326.4,84.8 334.2,84.8 342.1,84.8 350.0,84.8 357.9,84.8 365.8,84.8 373.6,84.8 381.5,84.8 389.4,84.8 389.4,79.9 397.3,79.9 405.2,79.9 413.0,79.9 413.0,74.9 420.9,74.9 428.8,74.9 436.7,74.9 436.7,70.0 444.5,70.0 452.4,70.0 460.3,70.0 468.2,70.0 476.1,70.0 483.9,70.0 491.8,70.0 499.7,70.0 507.6,70.0 515.5,70.0 523.3,70.0 531.2,70.0 539.1,70.0 547.0,70.0 554.8,70.0 562.7,70.0 570.6,70.0 578.5,70.0 586.4,70.0 594.2,70.0 602.1,70.0 610.0,70.0 610.0,70.0" fill="none" stroke="#2ca02c" stroke-width="3"/>
<line x1="400" y1="360" x2="430" y2="360" stroke="#2ca02c" stroke-width="3"/>
<text x="440" y="364" font-size="12" font-weight="bold" fill="#333">Random Forest (AUC = 0.876)</text>
</svg>